<svg id="visual" viewBox="0 0 900 600" width="900" height="600" xmlns="http://www.w3.org/2000/svg" xmlns:xlink="http://www.w3.org/1999/xlink" version="1.1"><rect x="0" y="0" width="900" height="600" fill="#111827"></rect><defs><linearGradient id="grad1_0" x1="33.3%" y1="100%" x2="100%" y2="0%"><stop offset="20%" stop-color="#3b4048" stop-opacity="1"></stop><stop offset="80%" stop-color="#3b4048" stop-opacity="1"></stop></linearGradient></defs><defs><linearGradient id="grad1_1" x1="33.3%" y1="100%" x2="100%" y2="0%"><stop offset="20%" stop-color="#3b4048" stop-opacity="1"></stop><stop offset="80%" stop-color="#303640" stop-opacity="1"></stop></linearGradient></defs><defs><linearGradient id="grad1_2" x1="33.3%" y1="100%" x2="100%" y2="0%"><stop offset="20%" stop-color="#252b37" stop-opacity="1"></stop><stop offset="80%" stop-color="#303640" stop-opacity="1"></stop></linearGradient></defs><defs><linearGradient id="grad1_3" x1="33.3%" y1="100%" x2="100%" y2="0%"><stop offset="20%" stop-color="#252b37" stop-opacity="1"></stop><stop offset="80%" stop-color="#1b222f" stop-opacity="1"></stop></linearGradient></defs><defs><linearGradient id="grad1_4" x1="33.3%" y1="100%" x2="100%" y2="0%"><stop offset="20%" stop-color="#111827" stop-opacity="1"></stop><stop offset="80%" stop-color="#1b222f" stop-opacity="1"></stop></linearGradient></defs><defs><linearGradient id="grad2_0" x1="0%" y1="100%" x2="66.7%" y2="0%"><stop offset="20%" stop-color="#3b4048" stop-opacity="1"></stop><stop offset="80%" stop-color="#3b4048" stop-opacity="1"></stop></linearGradient></defs><defs><linearGradient id="grad2_1" x1="0%" y1="100%" x2="66.7%" y2="0%"><stop offset="20%" stop-color="#303640" stop-opacity="1"></stop><stop offset="80%" stop-color="#3b4048" stop-opacity="1"></stop></linearGradient></defs><defs><linearGradient id="grad2_2" x1="0%" y1="100%" x2="66.7%" y2="0%"><stop offset="20%" stop-color="#303640" stop-opacity="1"></stop><stop offset="80%" stop-color="#252b37" stop-opacity="1"></stop></linearGradient></defs><defs><linearGradient id="grad2_3" x1="0%" y1="100%" x2="66.7%" y2="0%"><stop offset="20%" stop-color="#1b222f" stop-opacity="1"></stop><stop offset="80%" stop-color="#252b37" stop-opacity="1"></stop></linearGradient></defs><defs><linearGradient id="grad2_4" x1="0%" y1="100%" x2="66.7%" y2="0%"><stop offset="20%" stop-color="#1b222f" stop-opacity="1"></stop><stop offset="80%" stop-color="#111827" stop-opacity="1"></stop></linearGradient></defs><g transform="translate(900, 600)"><path d="M-459.7 0C-463.4 -53.3 -467.2 -106.5 -437.2 -142.1C-407.3 -177.6 -343.6 -195.3 -305.8 -222.2C-268 -249 -256 -285 -232.8 -320.4C-209.5 -355.8 -175.1 -390.6 -134.4 -413.7C-93.8 -436.8 -46.9 -448.3 0 -459.7L0 0Z" fill="#161d2b"></path><path d="M-367.8 0C-370.7 -42.6 -373.7 -85.2 -349.8 -113.6C-325.8 -142.1 -274.9 -156.3 -244.6 -177.7C-214.4 -199.2 -204.8 -228 -186.2 -256.3C-167.6 -284.6 -140.1 -312.5 -107.5 -331C-75 -349.5 -37.5 -358.6 0 -367.8L0 0Z" fill="#202633"></path><path d="M-275.8 0C-278.1 -32 -280.3 -63.9 -262.3 -85.2C-244.4 -106.5 -206.2 -117.2 -183.5 -133.3C-160.8 -149.4 -153.6 -171 -139.7 -192.2C-125.7 -213.5 -105.1 -234.3 -80.7 -248.2C-56.3 -262.1 -28.1 -269 0 -275.8L0 0Z" fill="#2a303b"></path><path d="M-183.9 0C-185.4 -21.3 -186.9 -42.6 -174.9 -56.8C-162.9 -71 -137.5 -78.1 -122.3 -88.9C-107.2 -99.6 -102.4 -114 -93.1 -128.1C-83.8 -142.3 -70 -156.2 -53.8 -165.5C-37.5 -174.7 -18.8 -179.3 0 -183.9L0 0Z" fill="#353b44"></path><path d="M-91.9 0C-92.7 -10.7 -93.4 -21.3 -87.4 -28.4C-81.5 -35.5 -68.7 -39.1 -61.2 -44.4C-53.6 -49.8 -51.2 -57 -46.6 -64.1C-41.9 -71.2 -35 -78.1 -26.9 -82.7C-18.8 -87.4 -9.4 -89.7 0 -91.9L0 0Z" fill="#3b4048"></path></g><g transform="translate(0, 0)"><path d="M459.7 0C468.1 56.3 476.5 112.6 437.2 142.1C397.9 171.5 311 174.1 263.7 191.6C216.5 209.1 209 241.5 188.7 259.7C168.4 277.9 135.2 281.9 101.7 312.9C68.1 343.9 34 401.8 0 459.7L0 0Z" fill="#161d2b"></path><path d="M367.8 0C374.5 45 381.2 90.1 349.8 113.6C318.3 137.2 248.8 139.3 211 153.3C173.2 167.3 167.2 193.2 150.9 207.8C134.7 222.3 108.2 225.5 81.3 250.3C54.5 275.1 27.2 321.4 0 367.8L0 0Z" fill="#202633"></path><path d="M275.8 0C280.9 33.8 285.9 67.6 262.3 85.2C238.8 102.9 186.6 104.5 158.2 115C129.9 125.5 125.4 144.9 113.2 155.8C101 166.7 81.1 169.2 61 187.7C40.9 206.3 20.4 241.1 0 275.8L0 0Z" fill="#2a303b"></path><path d="M183.9 0C187.2 22.5 190.6 45 174.9 56.8C159.2 68.6 124.4 69.6 105.5 76.6C86.6 83.6 83.6 96.6 75.5 103.9C67.3 111.2 54.1 112.8 40.7 125.2C27.2 137.5 13.6 160.7 0 183.9L0 0Z" fill="#353b44"></path><path d="M91.9 0C93.6 11.3 95.3 22.5 87.4 28.4C79.6 34.3 62.2 34.8 52.7 38.3C43.3 41.8 41.8 48.3 37.7 51.9C33.7 55.6 27 56.4 20.3 62.6C13.6 68.8 6.8 80.4 0 91.9L0 0Z" fill="#3b4048"></path></g></svg>